HIERARCHY
ROOT hip
{
	OFFSET 0.000000 0.000000 0.000000 
	CHANNELS 6 Xposition Yposition Zposition Xrotation Zrotation Yrotation
	JOINT abdomen
	{
		OFFSET 0.000000 3.402643 0.000000 
		CHANNELS 3 Xrotation Zrotation Yrotation
		JOINT chest
		{
			OFFSET 0.000000 8.438565 -0.680529 
			CHANNELS 3 Xrotation Zrotation Yrotation
			JOINT neck
			{
				OFFSET 0.000000 10.207942 -0.272212 
				CHANNELS 3 Xrotation Zrotation Yrotation
				JOINT head
				{
					OFFSET 0.000000 3.130431 0.000000 
					CHANNELS 3 Xrotation Zrotation Yrotation
					End Site
					{
						OFFSET 0.000000 3.130435 0.000000 
					}
				}
			}
			JOINT lCollar
			{
				OFFSET 3.470700 6.669187 -0.816635 
				CHANNELS 3 Yrotation Zrotation Xrotation
				JOINT lShldr
				{
					OFFSET 3.198488 0.000000 0.000000 
					CHANNELS 3 Zrotation Yrotation Xrotation
					JOINT lForeArm
					{
						OFFSET 10.139888 0.000000 0.000000 
						CHANNELS 3 Yrotation Zrotation Xrotation
						JOINT lHand
						{
							OFFSET 8.370511 0.000000 0.000000 
							CHANNELS 3 Zrotation Yrotation Xrotation
							End Site
							{
								OFFSET 4.083176 0.000000 0.000000 
							}
						}
					}
				}
			}
			JOINT rCollar
			{
				OFFSET -3.470700 6.669187 -0.816635 
				CHANNELS 3 Yrotation Zrotation Xrotation
				JOINT rShldr
				{
					OFFSET -3.198488 0.000000 0.000000 
					CHANNELS 3 Zrotation Yrotation Xrotation
					JOINT rForeArm
					{
						OFFSET -10.139888 0.000000 0.000000 
						CHANNELS 3 Yrotation Zrotation Xrotation
						JOINT rHand
						{
							OFFSET -8.370511 0.000000 0.000000 
							CHANNELS 3 Zrotation Yrotation Xrotation
							End Site
							{
								OFFSET -4.083176 0.000000 0.000000 
							}
						}
					}
				}
			}
		}
	}
	JOINT lThigh
	{
		OFFSET 5.308129 -1.633274 1.361059 
		CHANNELS 3 Xrotation Zrotation Yrotation
		JOINT lShin
		{
			OFFSET -2.041588 -20.007561 0.000000 
			CHANNELS 3 Xrotation Zrotation Yrotation
			JOINT lFoot
			{
				OFFSET 0.000000 -19.190928 -1.224953 
				CHANNELS 3 Xrotation Yrotation Zrotation
				End Site
				{
					OFFSET 0.000000 -2.449906 4.627600 
				}
			}
		}
	}
	JOINT rThigh
	{
		OFFSET -5.308129 -1.633274 1.361059 
		CHANNELS 3 Xrotation Zrotation Yrotation
		JOINT rShin
		{
			OFFSET 2.041588 -20.007561 0.000000 
			CHANNELS 3 Xrotation Zrotation Yrotation
			JOINT rFoot
			{
				OFFSET 0.000000 -19.190928 -1.224953 
				CHANNELS 3 Xrotation Yrotation Zrotation
				End Site
				{
					OFFSET 0.000000 -2.449906 4.627600 
				}
			}
		}
	}
}
MOTION
Frames: 11
Frame Time: 0.016667
-0.609572 44.315632 1.343688 2.325550 -1.941760 0.301732 -22.492300 0.799795 -0.035340 17.714199 1.258220 0.093798 13.960100 3.067390 -2.379650 11.568500 5.377030 -0.731554 2.000000 -2.000000 0.000000 87.615303 167.753006 -7.695030 37.197701 -0.323751 0.082712 0.045651 -0.018039 -143.376999 -2.000000 2.000000 0.000000 -90.306297 -161.444000 -7.771240 -42.305099 0.315961 0.092024 -0.055018 -0.014092 -131.882996 -8.469930 1.299691 -12.638585 24.397263 3.405810 1.691944 -20.568207 18.455376 5.832808 3.007775 1.030918 1.977028 3.595850 -4.205544 -0.124852 -17.322718 -7.800515 -3.629669 
-0.628544 44.324398 1.320263 2.491680 -1.951280 0.383572 -22.570601 0.811465 -0.115297 17.655399 1.345930 0.058768 13.926400 2.967280 -2.360300 11.538700 5.348410 -0.728350 2.000000 -2.000000 0.000000 87.605499 167.753006 -7.734100 37.099998 -0.323892 0.082527 0.045632 -0.017875 -143.317993 -2.000000 2.000000 0.000000 -90.277000 -161.425003 -7.751760 -42.402802 0.315803 0.092197 -0.055006 -0.013956 -131.932007 -8.667492 1.473987 -12.169348 24.250376 3.398330 1.691860 -20.172621 18.000322 5.597675 2.820970 1.075935 1.887053 3.596102 -4.205824 -0.134619 -17.353905 -7.781157 -3.622467 
-0.630445 44.321049 1.314669 2.452590 -1.951340 0.384902 -22.551100 0.804712 -0.133333 17.684799 1.336210 0.050180 13.961000 2.855730 -2.335910 11.538100 5.309680 -0.713907 2.000000 -2.000000 0.000000 87.605598 167.820999 -7.782770 37.002300 -0.324032 0.082341 0.045590 -0.017495 -143.182007 -2.000000 2.000000 0.000000 -90.257500 -161.464005 -7.673540 -42.471100 0.315693 0.092317 -0.054992 -0.013792 -131.990005 -8.666533 1.468034 -12.149650 24.260609 3.392438 1.680814 -20.163208 17.939417 5.558760 2.852015 1.076901 1.889845 3.589290 -4.211140 -0.124702 -17.314066 -7.778262 -3.605081 
-0.632344 44.317699 1.309075 2.423270 -1.941620 0.386314 -22.521700 0.794581 -0.160387 17.723801 1.326500 0.041808 13.995700 2.753700 -2.308820 11.537700 5.280640 -0.707958 2.000000 -2.000000 0.000000 87.595802 167.889999 -7.831430 36.894901 -0.324186 0.082136 0.045549 -0.017114 -143.044998 -2.000000 2.000000 0.000000 -90.228203 -161.501999 -7.605090 -42.539501 0.315583 0.092437 -0.054978 -0.013629 -132.048996 -8.614009 1.468158 -12.114119 24.237999 3.411403 1.674585 -20.178793 17.872259 5.544326 2.877245 1.065983 1.890870 3.601077 -4.213434 -0.114786 -17.289879 -7.783476 -3.606575 
-0.633094 44.316666 1.304814 2.403710 -1.931890 0.387387 -22.521700 0.791152 -0.169530 17.723801 1.326500 0.032042 14.024200 2.734600 -2.300560 11.537700 5.280640 -0.707958 2.000000 -2.000000 0.000000 87.586098 167.908997 -7.821620 36.894901 -0.324186 0.082136 0.045540 -0.017033 -143.016006 -2.000000 2.000000 0.000000 -90.237900 -161.444000 -7.556400 -42.627399 0.315441 0.092592 -0.054955 -0.013357 -132.145996 -8.590122 1.458363 -12.164153 24.220650 3.396453 1.682027 -20.160070 17.896311 5.543942 2.894854 1.047446 1.890747 3.595861 -4.205536 -0.124851 -17.328321 -7.767366 -3.611954 
-0.633843 44.315632 1.300553 2.393910 -1.912390 0.388534 -22.511900 0.787776 -0.178548 17.733601 1.336270 0.031787 14.062300 2.715230 -2.291700 11.547400 5.270820 -0.698568 2.000000 -2.000000 0.000000 87.576302 167.929001 -7.811810 36.885201 -0.324200 0.082117 0.045532 -0.016951 -142.985992 -2.000000 2.000000 0.000000 -90.247597 -161.395004 -7.517450 -42.715302 0.315299 0.092746 -0.054932 -0.013084 -132.244003 -8.583988 1.430248 -12.173954 24.237679 3.413835 1.675107 -20.132366 17.933809 5.538569 2.908298 1.039472 1.891096 3.596154 -4.205284 -0.124826 -17.358521 -7.742076 -3.622258 
-0.634890 44.312801 1.299502 2.345140 -1.971010 0.319399 -22.521799 0.812623 -0.167866 17.704300 1.316730 0.041841 14.012000 2.737510 -2.263210 11.498600 5.290870 -0.690756 2.000000 -2.000000 0.000000 87.527496 167.899994 -7.929070 36.953499 -0.324102 0.082248 0.045503 -0.016679 -142.889008 -2.000000 2.000000 0.000000 -90.247498 -161.326004 -7.449260 -42.715302 0.315299 0.092746 -0.054928 -0.013029 -132.264008 -8.515659 1.478681 -12.238094 24.267635 3.410963 1.674822 -20.228193 17.972782 5.581526 2.954201 1.092630 1.968270 3.598249 -4.203492 -0.124646 -17.370060 -7.748351 -3.604430 
-0.635936 44.309837 1.298448 2.296350 -2.019860 0.240991 -22.531700 0.837468 -0.157190 17.684799 1.306950 0.041881 13.971500 2.769000 -2.231320 11.449700 5.301250 -0.684236 2.000000 -2.000000 0.000000 87.478699 167.871002 -8.056090 37.021900 -0.324004 0.082378 0.045472 -0.016380 -142.781006 -2.000000 2.000000 0.000000 -90.247398 -161.257996 -7.390830 -42.715302 0.315299 0.092746 -0.054923 -0.012975 -132.283005 -8.519630 1.505090 -12.316586 24.394810 3.421510 1.685465 -20.326767 18.016411 5.604693 3.001087 1.144727 2.035643 3.594856 -4.206392 -0.124938 -17.413803 -7.743217 -3.617054 
-0.637640 44.308029 1.297437 2.257280 -2.029680 0.154092 -22.541599 0.853291 -0.142777 17.655500 1.336180 0.059262 13.871500 2.764860 -2.205670 11.390900 5.302070 -0.670119 2.000000 -2.000000 0.000000 -92.579803 12.129100 171.845993 37.090199 -0.323906 0.082508 0.045458 -0.016244 -142.731995 -2.000000 2.000000 0.000000 -90.237701 -161.238007 -7.449470 -42.646900 0.315410 0.092626 -0.054943 -0.013220 -132.195007 -8.479323 1.500423 -12.299522 24.422390 3.433625 1.677394 -20.390696 18.079411 5.645939 3.032587 1.151704 2.117373 3.595533 -4.204331 -0.095513 -17.378761 -7.778438 -3.611296 
-0.639344 44.306095 1.296429 2.218190 -2.029730 0.067585 -22.541700 0.872597 -0.119088 17.626101 1.355650 0.067347 13.772100 2.769530 -2.187400 11.332200 5.312580 -0.664530 2.000000 -2.000000 0.000000 -92.648201 12.138600 171.738998 37.158600 -0.323807 0.082638 0.045444 -0.016108 -142.682999 -2.000000 2.000000 0.000000 -90.218102 -161.218994 -7.508110 -42.568802 0.315536 0.092489 -0.054961 -0.013438 -132.117004 -8.429442 1.493187 -12.283062 24.460697 3.445223 1.689214 -20.476231 18.133337 5.682150 3.060168 1.139811 2.207018 3.594980 -4.205300 -0.105349 -17.338814 -7.775790 -3.595367 
-0.643702 44.304806 1.293243 2.179170 -2.078580 -0.011019 -22.541901 0.912105 -0.124916 17.596800 1.384870 0.074907 13.680700 2.718300 -2.162910 11.273100 5.294020 -0.652880 2.000000 -2.000000 0.000000 -92.667801 12.168100 171.835999 37.236698 -0.323695 0.082787 0.045472 -0.016380 -142.781006 -2.000000 2.000000 0.000000 -90.208397 -161.199997 -7.586290 -42.480900 0.315678 0.092334 -0.054992 -0.013792 -131.990005 -8.365240 1.587786 -12.132373 24.471558 3.440657 1.697903 -20.464169 18.103563 5.662418 3.089787 1.201118 2.303237 3.595701 -4.205175 -0.115077 -17.354639 -7.791372 -3.594991 
